<svg width="111" height="79" viewBox="0 0 111 79" fill="none" xmlns="http://www.w3.org/2000/svg">
<path fill-rule="evenodd" clip-rule="evenodd" d="M27.8782 35.0741C27.7685 34.9145 27.5859 34.8326 27.4018 34.8326H16.9198L22.1468 26.4844C22.2814 26.27 22.2889 25.9766 22.1255 25.7413C22.0147 25.5815 21.8302 25.5 21.6454 25.5H12.619C11.7128 25.5 10.866 25.9856 10.3584 26.7963L0.100121 43.181C-0.0340784 43.3955 -0.0397249 43.689 0.121954 43.9242C0.231497 44.0837 0.414068 44.1653 0.598333 44.1653H11.0751L5.84753 52.5156C5.75343 52.6662 5.72463 52.8557 5.76754 53.0364C5.83361 53.3163 6.08168 53.5 6.34913 53.5H15.3702C16.2833 53.5 17.1365 53.0106 17.6477 52.194L22.6729 44.1653L27.8997 35.8171C28.0341 35.6028 28.0397 35.309 27.8782 35.0741Z" fill="#4E48E0"/>
<path fill-rule="evenodd" clip-rule="evenodd" d="M22.6741 44.1636L17.6477 52.1939C17.1365 53.0107 16.2831 53.4999 15.3703 53.4999H6.3492C6.08174 53.4999 5.83367 53.3164 5.7676 53.0365C5.72469 52.8558 5.75349 52.6663 5.8476 52.5157L11.0761 44.1636H22.6741Z" fill="#4E48E0"/>
<path fill-rule="evenodd" clip-rule="evenodd" d="M16.913 34.8325H27.4018C27.5859 34.8325 27.7685 34.9144 27.8782 35.0738C28.0399 35.3089 28.0339 35.6025 27.8998 35.8171L22.6732 44.1653H11.0707L16.913 34.8325Z" fill="#1C81C1"/>
<path fill-rule="evenodd" clip-rule="evenodd" d="M0.598286 44.1653C0.414209 44.1653 0.231638 44.0837 0.122095 43.9242C-0.0397721 43.689 -0.0341255 43.3955 0.100262 43.1812L10.3585 26.7963C10.8659 25.9856 11.7129 25.5 12.619 25.5H21.6453C21.8302 25.5 22.0148 25.5817 22.1257 25.7413C22.2889 25.9766 22.2813 26.27 22.1469 26.4846L11.0762 44.1653H0.598286Z" fill="#5CC4CD"/>
<path d="M36 48.6874V31.2329H40.2019V38.6135H40.4311L46.178 31.2329H51.1269L44.9641 39.0226L51.2373 48.6874H46.2119L41.8827 41.8266L40.2019 43.9573V48.6874H36Z" fill="#3A3945"/>
<path d="M53.6014 48.6874V35.5965H57.7524V48.6874H53.6014ZM55.6811 34.0709C55.0982 34.0709 54.5974 33.8778 54.1786 33.4914C53.7598 33.0993 53.5504 32.6278 53.5504 32.0766C53.5504 31.5312 53.7598 31.0653 54.1786 30.6789C54.5974 30.2868 55.0982 30.0908 55.6811 30.0908C56.2697 30.0908 56.7705 30.2868 57.1836 30.6789C57.6024 31.0653 57.8118 31.5312 57.8118 32.0766C57.8118 32.6278 57.6024 33.0993 57.1836 33.4914C56.7705 33.8778 56.2697 34.0709 55.6811 34.0709Z" fill="#3A3945"/>
<path d="M67.7542 35.5965V38.6647H59.5286V35.5965H67.7542ZM61.2518 32.4601H65.4028V44.5709C65.4028 44.8266 65.4424 45.034 65.5217 45.1931C65.6066 45.3465 65.7282 45.4573 65.8867 45.5255C66.0451 45.588 66.2347 45.6192 66.4554 45.6192C66.6139 45.6192 66.7808 45.605 66.9563 45.5766C67.1374 45.5425 67.2732 45.5141 67.3637 45.4914L67.9919 48.4999C67.7938 48.5567 67.5137 48.6278 67.1515 48.713C66.795 48.7982 66.3677 48.8522 65.8697 48.8749C64.8963 48.9204 64.0616 48.8067 63.3655 48.534C62.6751 48.2556 62.146 47.8238 61.7781 47.2385C61.4159 46.6533 61.2405 45.9175 61.2518 45.0312V32.4601Z" fill="#3A3945"/>
<path d="M73.5478 48.909C72.7159 48.909 71.9773 48.7698 71.3322 48.4914C70.6927 48.2073 70.1862 47.7812 69.8127 47.213C69.4449 46.6391 69.2609 45.9204 69.2609 45.0567C69.2609 44.3295 69.3883 43.7158 69.6429 43.2158C69.8976 42.7158 70.2485 42.3096 70.6955 41.9971C71.1426 41.6846 71.6576 41.4488 72.2405 41.2897C72.8234 41.1249 73.4459 41.0141 74.108 40.9573C74.8494 40.8891 75.4464 40.8181 75.8991 40.7442C76.3519 40.6647 76.6801 40.5539 76.8838 40.4118C77.0932 40.2641 77.1979 40.0567 77.1979 39.7897V39.7471C77.1979 39.3096 77.0479 38.9715 76.748 38.7329C76.4481 38.4942 76.0434 38.3749 75.5341 38.3749C74.9852 38.3749 74.5438 38.4942 74.2099 38.7329C73.876 38.9715 73.6638 39.301 73.5732 39.7215L69.7448 39.5851C69.858 38.7897 70.1494 38.0795 70.6191 37.4545C71.0945 36.8238 71.7453 36.3295 72.5715 35.9715C73.4034 35.6079 74.4023 35.426 75.5681 35.426C76.4 35.426 77.1668 35.5255 77.8685 35.7243C78.5702 35.9175 79.1814 36.2016 79.7021 36.5766C80.2227 36.9459 80.6245 37.4005 80.9075 37.9403C81.1961 38.48 81.3404 39.0965 81.3404 39.7897V48.6874H77.4356V46.8635H77.3337C77.1017 47.3067 76.8046 47.6817 76.4424 47.9885C76.0859 48.2954 75.6643 48.5255 75.1776 48.6789C74.6966 48.8323 74.1533 48.909 73.5478 48.909ZM74.8295 46.1817C75.2766 46.1817 75.6784 46.0908 76.0349 45.909C76.3971 45.7272 76.6858 45.4772 76.9008 45.159C77.1158 44.8351 77.2234 44.4601 77.2234 44.034V42.7897C77.1045 42.8522 76.9602 42.909 76.7904 42.9601C76.6263 43.0113 76.4452 43.0596 76.2472 43.105C76.0491 43.1505 75.8454 43.1903 75.636 43.2243C75.4266 43.2584 75.2257 43.2897 75.0333 43.3181C74.6428 43.3806 74.3089 43.4772 74.0316 43.6079C73.76 43.7385 73.5506 43.909 73.4034 44.1192C73.262 44.3238 73.1912 44.5681 73.1912 44.8522C73.1912 45.284 73.344 45.6135 73.6496 45.8408C73.9609 46.0681 74.3542 46.1817 74.8295 46.1817Z" fill="#3A3945"/>
<path d="M87.5541 48.909C86.7223 48.909 85.9837 48.7698 85.3386 48.4914C84.6991 48.2073 84.1926 47.7812 83.8191 47.213C83.4513 46.6391 83.2673 45.9204 83.2673 45.0567C83.2673 44.3295 83.3947 43.7158 83.6493 43.2158C83.904 42.7158 84.2549 42.3096 84.7019 41.9971C85.149 41.6846 85.664 41.4488 86.2469 41.2897C86.8298 41.1249 87.4523 41.0141 88.1144 40.9573C88.8558 40.8891 89.4528 40.8181 89.9055 40.7442C90.3583 40.6647 90.6865 40.5539 90.8902 40.4118C91.0996 40.2641 91.2043 40.0567 91.2043 39.7897V39.7471C91.2043 39.3096 91.0543 38.9715 90.7544 38.7329C90.4545 38.4942 90.0498 38.3749 89.5405 38.3749C88.9916 38.3749 88.5502 38.4942 88.2163 38.7329C87.8824 38.9715 87.6702 39.301 87.5796 39.7215L83.7512 39.5851C83.8644 38.7897 84.1558 38.0795 84.6255 37.4545C85.1009 36.8238 85.7517 36.3295 86.5779 35.9715C87.4098 35.6079 88.4087 35.426 89.5745 35.426C90.4064 35.426 91.1732 35.5255 91.8749 35.7243C92.5766 35.9175 93.1878 36.2016 93.7085 36.5766C94.2291 36.9459 94.6309 37.4005 94.9139 37.9403C95.2025 38.48 95.3468 39.0965 95.3468 39.7897V48.6874H91.442V46.8635H91.3401C91.1081 47.3067 90.811 47.6817 90.4488 47.9885C90.0923 48.2954 89.6707 48.5255 89.184 48.6789C88.703 48.8323 88.1597 48.909 87.5541 48.909ZM88.8359 46.1817C89.283 46.1817 89.6848 46.0908 90.0413 45.909C90.4035 45.7272 90.6921 45.4772 90.9072 45.159C91.1222 44.8351 91.2298 44.4601 91.2298 44.034V42.7897C91.1109 42.8522 90.9666 42.909 90.7968 42.9601C90.6327 43.0113 90.4516 43.0596 90.2536 43.105C90.0555 43.1505 89.8518 43.1903 89.6424 43.2243C89.433 43.2584 89.2321 43.2897 89.0397 43.3181C88.6492 43.3806 88.3153 43.4772 88.038 43.6079C87.7664 43.7385 87.557 43.909 87.4098 44.1192C87.2684 44.3238 87.1976 44.5681 87.1976 44.8522C87.1976 45.284 87.3504 45.6135 87.656 45.8408C87.9673 46.0681 88.3606 46.1817 88.8359 46.1817Z" fill="#3A3945"/>
<path d="M97.8849 48.6874V31.2329H102.036V37.838H102.121C102.291 37.4403 102.531 37.0567 102.842 36.6874C103.159 36.3181 103.561 36.017 104.048 35.784C104.54 35.5454 105.129 35.426 105.813 35.426C106.719 35.426 107.565 35.6647 108.352 36.142C109.144 36.6192 109.783 37.355 110.27 38.3493C110.757 39.3437 111 40.6107 111 42.1505C111 43.6334 110.765 44.8749 110.295 45.8749C109.831 46.8749 109.203 47.6249 108.411 48.1249C107.624 48.6249 106.75 48.8749 105.788 48.8749C105.131 48.8749 104.563 48.767 104.082 48.551C103.601 48.3351 103.196 48.051 102.868 47.6988C102.545 47.3465 102.296 46.9687 102.121 46.5653H101.993V48.6874H97.8849ZM101.951 42.142C101.951 42.8465 102.044 43.4601 102.231 43.9829C102.424 44.5056 102.698 44.9118 103.055 45.2016C103.417 45.4857 103.85 45.6278 104.353 45.6278C104.863 45.6278 105.296 45.4857 105.652 45.2016C106.009 44.9118 106.277 44.5056 106.459 43.9829C106.645 43.4601 106.739 42.8465 106.739 42.142C106.739 41.4374 106.645 40.8266 106.459 40.3096C106.277 39.7925 106.009 39.392 105.652 39.1079C105.301 38.8238 104.868 38.6817 104.353 38.6817C103.844 38.6817 103.411 38.8209 103.055 39.0993C102.698 39.3778 102.424 39.7755 102.231 40.2925C102.044 40.8096 101.951 41.426 101.951 42.142Z" fill="#3A3945"/>
</svg>
