<svg width="28" height="29" viewBox="0 0 28 29" fill="none" xmlns="http://www.w3.org/2000/svg">
<g id="symbol-copy-2">
<path id="Fill-1" fill-rule="evenodd" clip-rule="evenodd" d="M27.8782 10.0741C27.7685 9.91446 27.5859 9.83258 27.4018 9.83258H16.9198L22.1468 1.48438C22.2814 1.27 22.2889 0.976567 22.1255 0.741295C22.0147 0.581498 21.8302 0.5 21.6454 0.5H12.619C11.7128 0.5 10.866 0.985601 10.3584 1.79625L0.100121 18.181C-0.0340784 18.3955 -0.0397249 18.689 0.121954 18.9242C0.231497 19.0837 0.414068 19.1653 0.598333 19.1653H11.0751L5.84753 27.5156C5.75343 27.6662 5.72463 27.8557 5.76754 28.0364C5.83361 28.3163 6.08168 28.5 6.34913 28.5H15.3702C16.2833 28.5 17.1365 28.0106 17.6477 27.194L22.6729 19.1653L27.8997 10.8171C28.0341 10.6028 28.0397 10.309 27.8782 10.0741Z" fill="#4E48E0"/>
<path id="Fill-3" fill-rule="evenodd" clip-rule="evenodd" d="M22.6741 19.1636L17.6477 27.1939C17.1365 28.0107 16.2831 28.4999 15.3703 28.4999H6.3492C6.08174 28.4999 5.83367 28.3164 5.7676 28.0365C5.72469 27.8558 5.75349 27.6663 5.8476 27.5157L11.0761 19.1636H22.6741Z" fill="#4E48E0"/>
<path id="Fill-5" fill-rule="evenodd" clip-rule="evenodd" d="M16.913 9.83252H27.4018C27.5859 9.83252 27.7685 9.91439 27.8782 10.0738C28.0399 10.3089 28.0339 10.6025 27.8998 10.8171L22.6732 19.1653H11.0707L16.913 9.83252Z" fill="#1C81C1"/>
<path id="Fill-7" fill-rule="evenodd" clip-rule="evenodd" d="M0.598286 19.1653C0.414209 19.1653 0.231638 19.0837 0.122095 18.9242C-0.0397721 18.689 -0.0341255 18.3955 0.100262 18.1812L10.3585 1.79625C10.8659 0.985601 11.7129 0.5 12.619 0.5H21.6453C21.8302 0.5 22.0148 0.581686 22.1257 0.741295C22.2889 0.976567 22.2813 1.27 22.1469 1.48457L11.0762 19.1653H0.598286Z" fill="#5CC4CD"/>
</g>
</svg>
