<svg width="16" height="16" viewBox="0 0 16 16" fill="none" xmlns="http://www.w3.org/2000/svg">
<g id="instagram" clip-path="url(#clip0_48_2454)">
<path id="Vector" d="M11.3333 1.33325H4.66665C2.8257 1.33325 1.33331 2.82564 1.33331 4.66658V11.3333C1.33331 13.1742 2.8257 14.6666 4.66665 14.6666H11.3333C13.1743 14.6666 14.6666 13.1742 14.6666 11.3333V4.66658C14.6666 2.82564 13.1743 1.33325 11.3333 1.33325Z" stroke="#727272" stroke-linecap="round" stroke-linejoin="round"/>
<path id="Vector_2" d="M10.6667 7.57996C10.7489 8.13479 10.6542 8.70143 10.3958 9.1993C10.1375 9.69717 9.72877 10.1009 9.22776 10.3531C8.72675 10.6052 8.15897 10.693 7.6052 10.6039C7.05143 10.5148 6.53985 10.2533 6.14323 9.85673C5.74662 9.46012 5.48516 8.94854 5.39605 8.39477C5.30694 7.84099 5.39472 7.27322 5.64689 6.77221C5.89907 6.27119 6.3028 5.86245 6.80066 5.60412C7.29853 5.34579 7.86518 5.25102 8.42001 5.33329C8.98596 5.41721 9.50991 5.68093 9.91447 6.08549C10.319 6.49006 10.5828 7.01401 10.6667 7.57996Z" stroke="#727272" stroke-linecap="round" stroke-linejoin="round"/>
<path id="Vector_3" d="M11.6667 4.33325H11.6734" stroke="#727272" stroke-width="2" stroke-linecap="round" stroke-linejoin="round"/>
</g>
<defs>
<clipPath id="clip0_48_2454">
<rect width="16" height="16" fill="white"/>
</clipPath>
</defs>
</svg>
